# xmcd
#
# Track frame offsets: 
#        182
#        21322
#        41517
#        64832
#
# Disc length: 1199 seconds
#
# Revision: 1
# Processed by: cddbd v1.5.1PL0 Copyright (c) Steve Scherf et al.
# Submitted via: ExactAudioCopy v0.95a4
#
DISCID=2f04ad04
DTITLE=TLC - Red Light Special 
DYEAR=1994
DGENRE=A Cappella
TTITLE0=Red Light Special  (Radio Edit)
TTITLE1=Red Light Special  (L.A.'s Flava Mix)
TTITLE2=Red Light Special  (Gerald Hall's Remix)
TTITLE3=My Secret Enemy
EXTD=
EXTT0=
EXTT1=
EXTT2=
EXTT3=
PLAYORDER=
